<mxfile host="65bd71144e" scale="2" border="10">
    <diagram id="uLJD97KROvu1CpyDIIDq" name="Page-1">
        <mxGraphModel dx="722" dy="-257" grid="1" gridSize="10" guides="1" tooltips="1" connect="1" arrows="1" fold="1" page="0" pageScale="1" pageWidth="850" pageHeight="1100" background="#ffffff" math="0" shadow="0">
            <root>
                <mxCell id="0"/>
                <mxCell id="1" parent="0"/>
                <mxCell id="164" value="" style="edgeStyle=none;html=1;strokeColor=#4D4D4D;" edge="1" parent="1" source="155" target="159">
                    <mxGeometry relative="1" as="geometry"/>
                </mxCell>
                <mxCell id="155" value="Contenedores&lt;br&gt;DEV" style="aspect=fixed;html=1;points=[];align=center;image;fontSize=12;image=img/lib/azure2/containers/Container_Registries.svg;fontStyle=1;fontColor=#4D4D4D;labelBackgroundColor=none;" parent="1" vertex="1">
                    <mxGeometry x="380" y="960" width="55.74" height="50" as="geometry"/>
                </mxCell>
                <mxCell id="160" value="" style="edgeStyle=none;html=1;strokeColor=#4D4D4D;" edge="1" parent="1" target="157">
                    <mxGeometry relative="1" as="geometry">
                        <mxPoint x="186" y="910" as="sourcePoint"/>
                    </mxGeometry>
                </mxCell>
                <mxCell id="156" value="Desarrollador" style="points=[[0.35,0,0],[0.98,0.51,0],[1,0.71,0],[0.67,1,0],[0,0.795,0],[0,0.65,0]];verticalLabelPosition=bottom;sketch=0;html=1;verticalAlign=top;aspect=fixed;align=center;pointerEvents=1;shape=mxgraph.cisco19.user;fillColor=#005073;strokeColor=none;fontStyle=1;fontColor=#4D4D4D;labelBackgroundColor=none;" parent="1" vertex="1">
                    <mxGeometry x="161" y="840" width="50" height="50" as="geometry"/>
                </mxCell>
                <mxCell id="161" value="" style="edgeStyle=none;html=1;strokeColor=#4D4D4D;" edge="1" parent="1" source="157">
                    <mxGeometry relative="1" as="geometry">
                        <mxPoint x="270" y="985" as="targetPoint"/>
                    </mxGeometry>
                </mxCell>
                <mxCell id="157" value="GitHub&lt;br&gt;rama DEV" style="dashed=0;outlineConnect=0;html=1;align=center;labelPosition=center;verticalLabelPosition=bottom;verticalAlign=top;shape=mxgraph.weblogos.github;fontStyle=1;fontColor=#4D4D4D;labelBackgroundColor=none;" parent="1" vertex="1">
                    <mxGeometry x="161" y="960" width="50" height="50" as="geometry"/>
                </mxCell>
                <mxCell id="162" value="" style="edgeStyle=none;html=1;strokeColor=#4D4D4D;" edge="1" parent="1" source="158" target="155">
                    <mxGeometry relative="1" as="geometry"/>
                </mxCell>
                <mxCell id="158" value="Pipeline" style="sketch=0;aspect=fixed;html=1;points=[];align=center;image;fontSize=12;image=img/lib/mscae/Azure_Pipelines.svg;fontStyle=1;fontColor=#4D4D4D;labelBackgroundColor=none;" parent="1" vertex="1">
                    <mxGeometry x="270" y="960" width="50" height="50" as="geometry"/>
                </mxCell>
                <mxCell id="166" value="" style="edgeStyle=none;html=1;strokeColor=#4D4D4D;" edge="1" parent="1" source="159">
                    <mxGeometry relative="1" as="geometry">
                        <mxPoint x="509" y="910" as="targetPoint"/>
                    </mxGeometry>
                </mxCell>
                <mxCell id="159" value="Azure Devops" style="aspect=fixed;html=1;points=[];align=center;image;fontSize=12;image=img/lib/azure2/devops/Azure_DevOps.svg;fontStyle=1;fontColor=#4D4D4D;labelBackgroundColor=none;" parent="1" vertex="1">
                    <mxGeometry x="485" y="960" width="50" height="50" as="geometry"/>
                </mxCell>
                <mxCell id="170" style="edgeStyle=none;html=1;strokeColor=#CC0000;fontColor=#4D4D4D;" edge="1" parent="1" source="165" target="168">
                    <mxGeometry relative="1" as="geometry"/>
                </mxCell>
                <mxCell id="172" style="edgeStyle=none;html=1;entryX=0;entryY=0.556;entryDx=0;entryDy=0;entryPerimeter=0;strokeColor=#00CC66;fontSize=15;fontColor=#4D4D4D;" edge="1" parent="1" source="165" target="167">
                    <mxGeometry relative="1" as="geometry"/>
                </mxCell>
                <mxCell id="165" value="Container DEV" style="aspect=fixed;html=1;points=[];align=center;image;fontSize=12;image=img/lib/azure2/other/Worker_Container_App.svg;fontStyle=1;fontColor=#4D4D4D;labelBackgroundColor=none;" vertex="1" parent="1">
                    <mxGeometry x="483.48" y="840" width="51.52" height="50" as="geometry"/>
                </mxCell>
                <mxCell id="174" style="edgeStyle=none;html=1;strokeColor=#4D4D4D;fontSize=15;fontColor=#4D4D4D;" edge="1" parent="1" target="173">
                    <mxGeometry relative="1" as="geometry">
                        <mxPoint x="638" y="910" as="sourcePoint"/>
                    </mxGeometry>
                </mxCell>
                <mxCell id="167" value="&lt;font style=&quot;font-size: 15px;&quot;&gt;&lt;br&gt;&lt;br&gt;&lt;/font&gt;&lt;br&gt;Estable" style="sketch=0;html=1;aspect=fixed;strokeColor=none;shadow=0;align=center;verticalAlign=top;fillColor=#2D9C5E;shape=mxgraph.gcp2.check;fontStyle=1;fontColor=#4D4D4D;" vertex="1" parent="1">
                    <mxGeometry x="610" y="840" width="56.25" height="45" as="geometry"/>
                </mxCell>
                <mxCell id="171" style="edgeStyle=none;html=1;entryX=0.98;entryY=0.51;entryDx=0;entryDy=0;entryPerimeter=0;strokeColor=#4D4D4D;fontColor=#4D4D4D;" edge="1" parent="1" source="168" target="156">
                    <mxGeometry relative="1" as="geometry"/>
                </mxCell>
                <mxCell id="168" value="Error!" style="sketch=0;pointerEvents=1;shadow=0;dashed=0;html=1;strokeColor=none;labelPosition=center;verticalLabelPosition=bottom;outlineConnect=0;verticalAlign=top;align=center;shape=mxgraph.office.clouds.cloud_disaster;fillColor=#ff0000;fontStyle=1;fontColor=#4D4D4D;" vertex="1" parent="1">
                    <mxGeometry x="320" y="845" width="50" height="40" as="geometry"/>
                </mxCell>
                <mxCell id="179" style="edgeStyle=none;html=1;entryX=-0.074;entryY=0.509;entryDx=0;entryDy=0;entryPerimeter=0;strokeColor=#4D4D4D;fontSize=15;fontColor=#4D4D4D;" edge="1" parent="1" source="173" target="176">
                    <mxGeometry relative="1" as="geometry"/>
                </mxCell>
                <mxCell id="173" value="GitHub&lt;br&gt;rama PROD" style="dashed=0;outlineConnect=0;html=1;align=center;labelPosition=center;verticalLabelPosition=bottom;verticalAlign=top;shape=mxgraph.weblogos.github;fontStyle=1;fontColor=#4D4D4D;labelBackgroundColor=none;" vertex="1" parent="1">
                    <mxGeometry x="613.13" y="960" width="50" height="50" as="geometry"/>
                </mxCell>
                <mxCell id="181" value="" style="edgeStyle=none;html=1;strokeColor=#4D4D4D;fontSize=15;fontColor=#4D4D4D;" edge="1" parent="1" source="175" target="177">
                    <mxGeometry relative="1" as="geometry"/>
                </mxCell>
                <mxCell id="175" value="Contenedores&lt;br&gt;PROD" style="aspect=fixed;html=1;points=[];align=center;image;fontSize=12;image=img/lib/azure2/containers/Container_Registries.svg;fontStyle=1;fontColor=#4D4D4D;labelBackgroundColor=none;" vertex="1" parent="1">
                    <mxGeometry x="830" y="960" width="55.74" height="50" as="geometry"/>
                </mxCell>
                <mxCell id="180" value="" style="edgeStyle=none;html=1;strokeColor=#4D4D4D;fontSize=15;fontColor=#4D4D4D;" edge="1" parent="1" source="176" target="175">
                    <mxGeometry relative="1" as="geometry"/>
                </mxCell>
                <mxCell id="176" value="Pipeline" style="sketch=0;aspect=fixed;html=1;points=[];align=center;image;fontSize=12;image=img/lib/mscae/Azure_Pipelines.svg;fontStyle=1;fontColor=#4D4D4D;labelBackgroundColor=none;" vertex="1" parent="1">
                    <mxGeometry x="720" y="960" width="50" height="50" as="geometry"/>
                </mxCell>
                <mxCell id="182" value="" style="edgeStyle=none;html=1;strokeColor=#4D4D4D;fontSize=15;fontColor=#4D4D4D;" edge="1" parent="1" source="177">
                    <mxGeometry relative="1" as="geometry">
                        <mxPoint x="959" y="910" as="targetPoint"/>
                    </mxGeometry>
                </mxCell>
                <mxCell id="177" value="Azure Devops" style="aspect=fixed;html=1;points=[];align=center;image;fontSize=12;image=img/lib/azure2/devops/Azure_DevOps.svg;fontStyle=1;fontColor=#4D4D4D;labelBackgroundColor=none;" vertex="1" parent="1">
                    <mxGeometry x="935" y="960" width="50" height="50" as="geometry"/>
                </mxCell>
                <mxCell id="185" value="" style="edgeStyle=none;html=1;strokeColor=#4D4D4D;fontSize=15;fontColor=#4D4D4D;" edge="1" parent="1" source="178" target="184">
                    <mxGeometry relative="1" as="geometry"/>
                </mxCell>
                <mxCell id="178" value="Container PROD" style="aspect=fixed;html=1;points=[];align=center;image;fontSize=12;image=img/lib/azure2/other/Worker_Container_App.svg;fontStyle=1;fontColor=#4D4D4D;labelBackgroundColor=none;" vertex="1" parent="1">
                    <mxGeometry x="933.48" y="840" width="51.52" height="50" as="geometry"/>
                </mxCell>
                <mxCell id="184" value="Usuario" style="verticalLabelPosition=bottom;html=1;verticalAlign=top;align=center;strokeColor=none;fillColor=#00BEF2;shape=mxgraph.azure.user;fontStyle=1;fontColor=#4D4D4D;labelBackgroundColor=none;" vertex="1" parent="1">
                    <mxGeometry x="770" y="840" width="50" height="50" as="geometry"/>
                </mxCell>
            </root>
        </mxGraphModel>
    </diagram>
</mxfile>